<svg width="46" height="46" viewBox="0 0 46 46" fill="none" xmlns="http://www.w3.org/2000/svg">
<g id="Layer_x0020_1" filter="url(#filter0_d_592_756)">
<g id="_1421344023328">
<path id="Vector" d="M43.3717 26.08C40.5667 37.3301 29.1708 44.1767 17.9181 41.3713C6.67011 38.5666 -0.17726 27.1713 2.62899 15.9221C5.43278 4.6708 16.8286 -2.17631 28.0778 0.628392C39.3297 3.43309 46.1767 14.8296 43.3714 26.0802L43.3716 26.08H43.3717Z" fill="#F7931A"/>
<path id="Vector_2" d="M32.2611 18.0082C32.6791 15.2135 30.5512 13.7113 27.6415 12.7092L28.5854 8.92359L26.2808 8.34939L25.3619 12.0353C24.756 11.8842 24.1338 11.7418 23.5154 11.6007L24.4409 7.89046L22.1377 7.31625L21.1933 11.1006C20.6919 10.9865 20.1994 10.8737 19.7217 10.7548L19.7243 10.7429L16.5462 9.94933L15.9331 12.4106C15.9331 12.4106 17.643 12.8025 17.6069 12.8266C18.5402 13.0595 18.709 13.6772 18.6809 14.1669L17.6057 18.4795C17.67 18.4959 17.7533 18.5195 17.8453 18.5564C17.7684 18.5373 17.6866 18.5165 17.6017 18.4962L16.0946 24.5376C15.9805 24.8211 15.691 25.2466 15.0385 25.085C15.0616 25.1185 13.3635 24.667 13.3635 24.667L12.2192 27.3048L15.2184 28.0524C15.7763 28.1923 16.3231 28.3387 16.8615 28.4763L15.9078 32.3053L18.2098 32.8795L19.1543 29.0912C19.7832 29.2619 20.3935 29.4193 20.9909 29.5678L20.0497 33.3383L22.3544 33.9125L23.308 30.0907C27.238 30.8343 30.193 30.5345 31.4368 26.9803C32.439 24.1187 31.3869 22.4682 29.3193 21.3918C30.8252 21.0446 31.9595 20.0542 32.2619 18.0085L32.2612 18.008L32.2611 18.0082ZM26.9955 25.3911C26.2832 28.2527 21.4647 26.7058 19.9024 26.3179L21.168 21.2451C22.7302 21.6351 27.7399 22.4068 26.9956 25.3911H26.9955ZM27.7082 17.9667C27.0585 20.5696 23.048 19.2472 21.747 18.923L22.8944 14.3223C24.1954 14.6465 28.3851 15.2517 27.7084 17.9667H27.7082Z" fill="white"/>
</g>
</g>
<defs>
<filter id="filter0_d_592_756" x="0.335788" y="0" width="45.3284" height="45.3284" filterUnits="userSpaceOnUse" color-interpolation-filters="sRGB">
<feFlood flood-opacity="0" result="BackgroundImageFix"/>
<feColorMatrix in="SourceAlpha" type="matrix" values="0 0 0 0 0 0 0 0 0 0 0 0 0 0 0 0 0 0 127 0" result="hardAlpha"/>
<feOffset dy="1.66421"/>
<feGaussianBlur stdDeviation="0.832106"/>
<feComposite in2="hardAlpha" operator="out"/>
<feColorMatrix type="matrix" values="0 0 0 0 0 0 0 0 0 0 0 0 0 0 0 0 0 0 0.25 0"/>
<feBlend mode="normal" in2="BackgroundImageFix" result="effect1_dropShadow_592_756"/>
<feBlend mode="normal" in="SourceGraphic" in2="effect1_dropShadow_592_756" result="shape"/>
</filter>
</defs>
</svg>
