<svg width="13" height="13" viewBox="0 0 13 13" fill="none" xmlns="http://www.w3.org/2000/svg">
<g id="ETN logo" filter="url(#filter0_d_919_1843)">
<g id="Ellipse 35" filter="url(#filter1_d_919_1843)">
<circle cx="6.37435" cy="3.28841" r="3.07356" fill="#D9D9D9"/>
</g>
<g id="Layer_x0020_1">
<g id="_1421394342400">
<g id="Group">
<path id="Vector" d="M6.37245 0.576172L6.33887 0.698165V4.2378L6.37245 4.27363L7.90874 3.30242L6.37245 0.576172Z" fill="#343434"/>
<path id="Vector_2" d="M6.37129 0.576416L4.83496 3.30266L6.37129 4.27387V2.55583V0.576416Z" fill="#8C8C8C"/>
<path id="Vector_3" d="M6.37147 4.58472L6.35254 4.6094V5.87027L6.37147 5.92936L7.9087 3.61401L6.37147 4.58472Z" fill="#3C3C3B"/>
<path id="Vector_4" d="M6.37129 5.92936V4.58472L4.83496 3.61401L6.37129 5.92936Z" fill="#8C8C8C"/>
<path id="Vector_5" d="M6.37109 4.2737L7.90739 3.3025L6.37109 2.55566V4.2737Z" fill="#141414"/>
<path id="Vector_6" d="M4.83496 3.3025L6.37129 4.2737V2.55566L4.83496 3.3025Z" fill="#393939"/>
</g>
</g>
</g>
</g>
<defs>
<filter id="filter0_d_919_1843" x="0.227217" y="0.214844" width="12.2946" height="12.2943" filterUnits="userSpaceOnUse" color-interpolation-filters="sRGB">
<feFlood flood-opacity="0" result="BackgroundImageFix"/>
<feColorMatrix in="SourceAlpha" type="matrix" values="0 0 0 0 0 0 0 0 0 0 0 0 0 0 0 0 0 0 127 0" result="hardAlpha"/>
<feOffset dy="3.07356"/>
<feGaussianBlur stdDeviation="1.53678"/>
<feComposite in2="hardAlpha" operator="out"/>
<feColorMatrix type="matrix" values="0 0 0 0 0 0 0 0 0 0 0 0 0 0 0 0 0 0 0.25 0"/>
<feBlend mode="normal" in2="BackgroundImageFix" result="effect1_dropShadow_919_1843"/>
<feBlend mode="normal" in="SourceGraphic" in2="effect1_dropShadow_919_1843" result="shape"/>
</filter>
<filter id="filter1_d_919_1843" x="2.02202" y="0.214844" width="8.70499" height="8.70475" filterUnits="userSpaceOnUse" color-interpolation-filters="sRGB">
<feFlood flood-opacity="0" result="BackgroundImageFix"/>
<feColorMatrix in="SourceAlpha" type="matrix" values="0 0 0 0 0 0 0 0 0 0 0 0 0 0 0 0 0 0 127 0" result="hardAlpha"/>
<feOffset dy="1.27877"/>
<feGaussianBlur stdDeviation="0.639383"/>
<feComposite in2="hardAlpha" operator="out"/>
<feColorMatrix type="matrix" values="0 0 0 0 0 0 0 0 0 0 0 0 0 0 0 0 0 0 0.25 0"/>
<feBlend mode="normal" in2="BackgroundImageFix" result="effect1_dropShadow_919_1843"/>
<feBlend mode="normal" in="SourceGraphic" in2="effect1_dropShadow_919_1843" result="shape"/>
</filter>
</defs>
</svg>
