<svg width="1054" height="432" viewBox="0 0 1054 432" fill="none" xmlns="http://www.w3.org/2000/svg">
<g filter="url(#filter0_d_624_1457)">
<rect x="-0.5" y="0.5" width="48.7159" height="239.69" transform="matrix(-1 0 0 1 738.785 182.31)" fill="url(#paint0_linear_624_1457)" stroke="url(#paint1_linear_624_1457)"/>
<rect x="-0.5" y="0.5" width="48.7159" height="364.773" transform="matrix(-1 0 0 1 888.927 57.2269)" fill="url(#paint2_linear_624_1457)" stroke="url(#paint3_linear_624_1457)"/>
<rect x="-0.5" y="0.5" width="48.7159" height="414.048" transform="matrix(-1 0 0 1 1040.06 7.73438)" fill="url(#paint4_linear_624_1457)" stroke="url(#paint5_linear_624_1457)"/>
<rect x="-0.5" y="0.5" width="47.7216" height="317.393" transform="matrix(-1 0 0 1 813.359 104.607)" fill="url(#paint6_linear_624_1457)" stroke="url(#paint7_linear_624_1457)"/>
<rect x="-0.5" y="0.5" width="48.7159" height="179.044" transform="matrix(-1 0 0 1 663.216 242.956)" fill="url(#paint8_linear_624_1457)" stroke="url(#paint9_linear_624_1457)"/>
<rect x="-0.5" y="0.5" width="47.7216" height="131.664" transform="matrix(-1 0 0 1 589.637 290.336)" fill="url(#paint10_linear_624_1457)" stroke="url(#paint11_linear_624_1457)"/>
<rect x="-0.5" y="0.5" width="48.7159" height="218.843" transform="matrix(-1 0 0 1 964.495 203.157)" fill="url(#paint12_linear_624_1457)" stroke="url(#paint13_linear_624_1457)"/>
<rect x="-0.5" y="0.5" width="48.7159" height="239.69" transform="matrix(-1 0 0 1 738.785 182.31)" fill="url(#paint14_linear_624_1457)" stroke="url(#paint15_linear_624_1457)"/>
<rect x="-0.5" y="0.5" width="48.7159" height="364.773" transform="matrix(-1 0 0 1 888.927 57.2269)" fill="url(#paint16_linear_624_1457)" stroke="url(#paint17_linear_624_1457)"/>
<rect x="-0.5" y="0.5" width="48.7159" height="414.048" transform="matrix(-1 0 0 1 1040.06 7.73438)" fill="url(#paint18_linear_624_1457)" stroke="url(#paint19_linear_624_1457)"/>
<rect x="-0.5" y="0.5" width="47.7216" height="317.393" transform="matrix(-1 0 0 1 813.359 104.607)" fill="url(#paint20_linear_624_1457)" stroke="url(#paint21_linear_624_1457)"/>
<rect x="-0.5" y="0.5" width="48.7159" height="179.044" transform="matrix(-1 0 0 1 663.216 242.956)" fill="url(#paint22_linear_624_1457)" stroke="url(#paint23_linear_624_1457)"/>
<path d="M590.637 290.336V423H541.915" stroke="url(#paint24_linear_624_1457)"/>
<rect x="-0.5" y="0.5" width="48.7159" height="218.843" transform="matrix(-1 0 0 1 964.495 203.157)" fill="url(#paint25_linear_624_1457)" stroke="url(#paint26_linear_624_1457)"/>
<path d="M865.462 58.2632L816.147 107.155L741.102 184.567L666.058 245.682L591.013 290.499" stroke="#57EAFF" stroke-width="3"/>
<path d="M865.462 58.2632L816.147 107.155L741.102 184.567L666.058 245.682L591.013 290.499" stroke="#57EAFF" stroke-width="3"/>
<rect x="314.716" y="182.81" width="48.7159" height="239.69" fill="url(#paint27_linear_624_1457)" stroke="url(#paint28_linear_624_1457)"/>
<rect x="164.574" y="57.7269" width="48.7159" height="364.773" fill="url(#paint29_linear_624_1457)" stroke="url(#paint30_linear_624_1457)"/>
<rect x="13.4377" y="8.23438" width="48.7159" height="414.048" fill="url(#paint31_linear_624_1457)" stroke="url(#paint32_linear_624_1457)"/>
<rect x="240.142" y="105.107" width="47.7216" height="317.393" fill="url(#paint33_linear_624_1457)" stroke="url(#paint34_linear_624_1457)"/>
<rect x="390.284" y="243.456" width="48.7159" height="179.044" fill="url(#paint35_linear_624_1457)" stroke="url(#paint36_linear_624_1457)"/>
<rect x="463.864" y="290.836" width="47.7216" height="131.664" fill="url(#paint37_linear_624_1457)" stroke="url(#paint38_linear_624_1457)"/>
<rect x="89.0056" y="203.657" width="48.7159" height="218.843" fill="url(#paint39_linear_624_1457)" stroke="url(#paint40_linear_624_1457)"/>
<path d="M188.539 58.2632L237.854 107.155L312.898 184.567L387.943 245.682" stroke="#57EAFF" stroke-width="3"/>
<rect x="314.716" y="182.81" width="48.7159" height="239.69" fill="url(#paint41_linear_624_1457)" stroke="url(#paint42_linear_624_1457)"/>
<rect x="164.574" y="57.7269" width="48.7159" height="364.773" fill="url(#paint43_linear_624_1457)" stroke="url(#paint44_linear_624_1457)"/>
<rect x="13.4377" y="8.23438" width="48.7159" height="414.048" fill="url(#paint45_linear_624_1457)" stroke="url(#paint46_linear_624_1457)"/>
<rect x="240.142" y="105.107" width="47.7216" height="317.393" fill="url(#paint47_linear_624_1457)" stroke="url(#paint48_linear_624_1457)"/>
<rect x="390.284" y="243.456" width="48.7159" height="179.044" fill="url(#paint49_linear_624_1457)" stroke="url(#paint50_linear_624_1457)"/>
<rect x="463.864" y="290.836" width="47.7216" height="131.664" fill="url(#paint51_linear_624_1457)" stroke="url(#paint52_linear_624_1457)"/>
<rect x="89.0056" y="203.657" width="48.7159" height="218.843" fill="url(#paint53_linear_624_1457)" stroke="url(#paint54_linear_624_1457)"/>
<path d="M40 74.771L38.6156 75.3485L38.6493 75.4292L38.6921 75.5054L40 74.771ZM112 203L110.692 203.734L112.039 206.134L113.326 203.701L112 203ZM188.539 58.2632L189.595 57.198L188.158 55.7739L187.213 57.562L188.539 58.2632ZM237.854 107.155L238.931 106.111L238.92 106.1L238.91 106.09L237.854 107.155ZM312.898 184.567L311.821 185.611L311.883 185.674L311.951 185.73L312.898 184.567ZM387.943 245.682L386.995 246.845L387.146 246.968L387.323 247.048L387.943 245.682ZM4.72046 9.37146C4.72046 13.7897 8.30218 17.3715 12.7205 17.3715C17.1387 17.3715 20.7205 13.7897 20.7205 9.37146C20.7205 4.95318 17.1387 1.37146 12.7205 1.37146C8.30218 1.37146 4.72046 4.95318 4.72046 9.37146ZM38.6921 75.5054L110.692 203.734L113.308 202.265L41.3079 74.0367L38.6921 75.5054ZM11.3361 9.94892L38.6156 75.3485L41.3844 74.1936L14.1049 8.794L11.3361 9.94892ZM113.326 203.701L189.865 58.9645L187.213 57.562L110.674 202.299L113.326 203.701ZM187.483 59.3285L236.798 108.22L238.91 106.09L189.595 57.198L187.483 59.3285ZM311.951 185.73L386.995 246.845L388.89 244.519L313.845 183.404L311.951 185.73ZM236.777 108.199L311.821 185.611L313.975 183.523L238.931 106.111L236.777 108.199ZM387.323 247.048L488.381 292.866L489.619 290.134L388.562 244.316L387.323 247.048Z" fill="#57EAFF"/>
<path d="M1013.54 75.3995L1014.92 75.9743L1014.89 76.0564L1014.85 76.1339L1013.54 75.3995ZM941.539 203.628L942.847 204.363L941.499 206.762L940.213 204.33L941.539 203.628ZM873 58.8917C873 63.3099 869.418 66.8917 865 66.8917C860.582 66.8917 857 63.3099 857 58.8917C857 54.4734 860.582 50.8917 865 50.8917C869.418 50.8917 873 54.4734 873 58.8917ZM1049.5 7.99988C1049.5 12.4182 1045.92 15.9999 1041.5 15.9999C1037.08 15.9999 1033.5 12.4182 1033.5 7.99988C1033.5 3.5816 1037.08 -0.00012207 1041.5 -0.00012207C1045.92 -0.00012207 1049.5 3.5816 1049.5 7.99988ZM1014.85 76.1339L942.847 204.363L940.231 202.894L1012.23 74.6651L1014.85 76.1339ZM1042.89 8.57466L1014.92 75.9743L1012.15 74.8247L1040.11 7.42509L1042.89 8.57466ZM940.213 204.33L863.674 59.5929L866.326 58.1904L942.865 202.927L940.213 204.33Z" fill="#57EAFF"/>
<path d="M487 290.5C486.2 290.5 514.667 301.833 529 307.5L591 290.5" stroke="#57EAFF" stroke-width="3"/>
</g>
<defs>
<filter id="filter0_d_624_1457" x="0.720459" y="-0.00012207" width="1052.78" height="431.5" filterUnits="userSpaceOnUse" color-interpolation-filters="sRGB">
<feFlood flood-opacity="0" result="BackgroundImageFix"/>
<feColorMatrix in="SourceAlpha" type="matrix" values="0 0 0 0 0 0 0 0 0 0 0 0 0 0 0 0 0 0 127 0" result="hardAlpha"/>
<feOffset dy="4"/>
<feGaussianBlur stdDeviation="2"/>
<feComposite in2="hardAlpha" operator="out"/>
<feColorMatrix type="matrix" values="0 0 0 0 0 0 0 0 0 0 0 0 0 0 0 0 0 0 0.25 0"/>
<feBlend mode="normal" in2="BackgroundImageFix" result="effect1_dropShadow_624_1457"/>
<feBlend mode="normal" in="SourceGraphic" in2="effect1_dropShadow_624_1457" result="shape"/>
</filter>
<linearGradient id="paint0_linear_624_1457" x1="24.858" y1="0" x2="24.858" y2="240.69" gradientUnits="userSpaceOnUse">
<stop stop-color="#15A8E2"/>
<stop offset="1" stop-color="#2A58AD"/>
</linearGradient>
<linearGradient id="paint1_linear_624_1457" x1="24.858" y1="0" x2="24.858" y2="240.69" gradientUnits="userSpaceOnUse">
<stop stop-color="#00F6D9"/>
<stop offset="1" stop-opacity="0"/>
</linearGradient>
<linearGradient id="paint2_linear_624_1457" x1="24.858" y1="0" x2="24.858" y2="365.773" gradientUnits="userSpaceOnUse">
<stop stop-color="#15A8E2"/>
<stop offset="1" stop-color="#2A58AD"/>
</linearGradient>
<linearGradient id="paint3_linear_624_1457" x1="24.858" y1="0" x2="24.858" y2="365.773" gradientUnits="userSpaceOnUse">
<stop stop-color="#00F6D9"/>
<stop offset="1" stop-opacity="0"/>
</linearGradient>
<linearGradient id="paint4_linear_624_1457" x1="24.858" y1="0" x2="24.858" y2="415.048" gradientUnits="userSpaceOnUse">
<stop stop-color="#15A8E2"/>
<stop offset="1" stop-color="#2A58AD"/>
</linearGradient>
<linearGradient id="paint5_linear_624_1457" x1="24.858" y1="0" x2="24.858" y2="415.048" gradientUnits="userSpaceOnUse">
<stop stop-color="#00F6D9"/>
<stop offset="1" stop-color="#00F6D9" stop-opacity="0"/>
</linearGradient>
<linearGradient id="paint6_linear_624_1457" x1="24.3608" y1="0" x2="24.3608" y2="318.393" gradientUnits="userSpaceOnUse">
<stop stop-color="#15A8E2"/>
<stop offset="1" stop-color="#2A58AD"/>
</linearGradient>
<linearGradient id="paint7_linear_624_1457" x1="24.3608" y1="0" x2="24.3608" y2="318.393" gradientUnits="userSpaceOnUse">
<stop stop-color="#00F6D9"/>
<stop offset="1" stop-opacity="0"/>
</linearGradient>
<linearGradient id="paint8_linear_624_1457" x1="24.858" y1="0" x2="24.858" y2="180.044" gradientUnits="userSpaceOnUse">
<stop stop-color="#15A8E2"/>
<stop offset="1" stop-color="#2A58AD"/>
</linearGradient>
<linearGradient id="paint9_linear_624_1457" x1="24.858" y1="0" x2="24.858" y2="180.044" gradientUnits="userSpaceOnUse">
<stop stop-color="#00F6D9"/>
<stop offset="1" stop-color="#00F6D9" stop-opacity="0"/>
</linearGradient>
<linearGradient id="paint10_linear_624_1457" x1="24.3608" y1="0" x2="24.3608" y2="132.664" gradientUnits="userSpaceOnUse">
<stop stop-color="#15A8E2"/>
<stop offset="1" stop-color="#2A58AD"/>
</linearGradient>
<linearGradient id="paint11_linear_624_1457" x1="24.3608" y1="0" x2="24.3608" y2="132.664" gradientUnits="userSpaceOnUse">
<stop stop-color="#00F6D9"/>
<stop offset="1" stop-opacity="0"/>
</linearGradient>
<linearGradient id="paint12_linear_624_1457" x1="24.858" y1="0" x2="24.858" y2="219.843" gradientUnits="userSpaceOnUse">
<stop stop-color="#15A5E0"/>
<stop offset="1" stop-color="#295AAF"/>
</linearGradient>
<linearGradient id="paint13_linear_624_1457" x1="24.858" y1="0" x2="24.858" y2="219.843" gradientUnits="userSpaceOnUse">
<stop stop-color="#00F6D9"/>
<stop offset="1" stop-color="#00F6D9" stop-opacity="0"/>
</linearGradient>
<linearGradient id="paint14_linear_624_1457" x1="24.858" y1="0" x2="24.858" y2="240.69" gradientUnits="userSpaceOnUse">
<stop stop-color="#15A8E2"/>
<stop offset="1" stop-color="#2A58AD"/>
</linearGradient>
<linearGradient id="paint15_linear_624_1457" x1="24.858" y1="0" x2="24.858" y2="240.69" gradientUnits="userSpaceOnUse">
<stop stop-color="#00F6D9"/>
<stop offset="1" stop-opacity="0"/>
</linearGradient>
<linearGradient id="paint16_linear_624_1457" x1="24.858" y1="0" x2="24.858" y2="365.773" gradientUnits="userSpaceOnUse">
<stop stop-color="#15A8E2"/>
<stop offset="1" stop-color="#2A58AD"/>
</linearGradient>
<linearGradient id="paint17_linear_624_1457" x1="24.858" y1="0" x2="24.858" y2="365.773" gradientUnits="userSpaceOnUse">
<stop stop-color="#00F6D9"/>
<stop offset="1" stop-opacity="0"/>
</linearGradient>
<linearGradient id="paint18_linear_624_1457" x1="24.858" y1="0" x2="24.858" y2="415.048" gradientUnits="userSpaceOnUse">
<stop stop-color="#15A8E2"/>
<stop offset="1" stop-color="#2A58AD"/>
</linearGradient>
<linearGradient id="paint19_linear_624_1457" x1="24.858" y1="0" x2="24.858" y2="415.048" gradientUnits="userSpaceOnUse">
<stop stop-color="#00F6D9"/>
<stop offset="1" stop-color="#00F6D9" stop-opacity="0"/>
</linearGradient>
<linearGradient id="paint20_linear_624_1457" x1="24.3608" y1="0" x2="24.3608" y2="318.393" gradientUnits="userSpaceOnUse">
<stop stop-color="#15A8E2"/>
<stop offset="1" stop-color="#2A58AD"/>
</linearGradient>
<linearGradient id="paint21_linear_624_1457" x1="24.3608" y1="0" x2="24.3608" y2="318.393" gradientUnits="userSpaceOnUse">
<stop stop-color="#00F6D9"/>
<stop offset="1" stop-opacity="0"/>
</linearGradient>
<linearGradient id="paint22_linear_624_1457" x1="24.858" y1="0" x2="24.858" y2="180.044" gradientUnits="userSpaceOnUse">
<stop stop-color="#15A8E2"/>
<stop offset="1" stop-color="#2A58AD"/>
</linearGradient>
<linearGradient id="paint23_linear_624_1457" x1="24.858" y1="0" x2="24.858" y2="180.044" gradientUnits="userSpaceOnUse">
<stop stop-color="#00F6D9"/>
<stop offset="1" stop-color="#00F6D9" stop-opacity="0"/>
</linearGradient>
<linearGradient id="paint24_linear_624_1457" x1="566.276" y1="290.336" x2="566.276" y2="423" gradientUnits="userSpaceOnUse">
<stop stop-color="#00F6D9"/>
<stop offset="1" stop-opacity="0"/>
</linearGradient>
<linearGradient id="paint25_linear_624_1457" x1="24.858" y1="0" x2="24.858" y2="219.843" gradientUnits="userSpaceOnUse">
<stop stop-color="#15A5E0"/>
<stop offset="1" stop-color="#295AAF"/>
</linearGradient>
<linearGradient id="paint26_linear_624_1457" x1="24.858" y1="0" x2="24.858" y2="219.843" gradientUnits="userSpaceOnUse">
<stop stop-color="#00F6D9"/>
<stop offset="1" stop-color="#00F6D9" stop-opacity="0"/>
</linearGradient>
<linearGradient id="paint27_linear_624_1457" x1="339.074" y1="182.31" x2="339.074" y2="423" gradientUnits="userSpaceOnUse">
<stop stop-color="#15A8E2"/>
<stop offset="1" stop-color="#2A58AD"/>
</linearGradient>
<linearGradient id="paint28_linear_624_1457" x1="339.074" y1="182.31" x2="339.074" y2="423" gradientUnits="userSpaceOnUse">
<stop stop-color="#00F6D9"/>
<stop offset="1" stop-opacity="0"/>
</linearGradient>
<linearGradient id="paint29_linear_624_1457" x1="188.932" y1="57.2269" x2="188.932" y2="423" gradientUnits="userSpaceOnUse">
<stop stop-color="#15A8E2"/>
<stop offset="1" stop-color="#2A58AD"/>
</linearGradient>
<linearGradient id="paint30_linear_624_1457" x1="188.932" y1="57.2269" x2="188.932" y2="423" gradientUnits="userSpaceOnUse">
<stop stop-color="#00F6D9"/>
<stop offset="1" stop-opacity="0"/>
</linearGradient>
<linearGradient id="paint31_linear_624_1457" x1="37.7957" y1="7.73437" x2="37.7957" y2="422.782" gradientUnits="userSpaceOnUse">
<stop stop-color="#15A8E2"/>
<stop offset="1" stop-color="#2A58AD"/>
</linearGradient>
<linearGradient id="paint32_linear_624_1457" x1="37.7957" y1="7.73437" x2="37.7957" y2="422.782" gradientUnits="userSpaceOnUse">
<stop stop-color="#00F6D9"/>
<stop offset="1" stop-color="#00F6D9" stop-opacity="0"/>
</linearGradient>
<linearGradient id="paint33_linear_624_1457" x1="264.003" y1="104.607" x2="264.003" y2="423" gradientUnits="userSpaceOnUse">
<stop stop-color="#15A8E2"/>
<stop offset="1" stop-color="#2A58AD"/>
</linearGradient>
<linearGradient id="paint34_linear_624_1457" x1="264.003" y1="104.607" x2="264.003" y2="423" gradientUnits="userSpaceOnUse">
<stop stop-color="#00F6D9"/>
<stop offset="1" stop-opacity="0"/>
</linearGradient>
<linearGradient id="paint35_linear_624_1457" x1="414.642" y1="242.956" x2="414.642" y2="423" gradientUnits="userSpaceOnUse">
<stop stop-color="#15A8E2"/>
<stop offset="1" stop-color="#2A58AD"/>
</linearGradient>
<linearGradient id="paint36_linear_624_1457" x1="414.642" y1="242.956" x2="414.642" y2="423" gradientUnits="userSpaceOnUse">
<stop stop-color="#00F6D9"/>
<stop offset="1" stop-color="#00F6D9" stop-opacity="0"/>
</linearGradient>
<linearGradient id="paint37_linear_624_1457" x1="487.724" y1="290.336" x2="487.724" y2="423" gradientUnits="userSpaceOnUse">
<stop stop-color="#15A8E2"/>
<stop offset="1" stop-color="#2A58AD"/>
</linearGradient>
<linearGradient id="paint38_linear_624_1457" x1="487.724" y1="290.336" x2="487.724" y2="423" gradientUnits="userSpaceOnUse">
<stop stop-color="#00F6D9"/>
<stop offset="1" stop-opacity="0"/>
</linearGradient>
<linearGradient id="paint39_linear_624_1457" x1="113.364" y1="203.157" x2="113.364" y2="423" gradientUnits="userSpaceOnUse">
<stop stop-color="#15A5E0"/>
<stop offset="1" stop-color="#295AAF"/>
</linearGradient>
<linearGradient id="paint40_linear_624_1457" x1="113.364" y1="203.157" x2="113.364" y2="423" gradientUnits="userSpaceOnUse">
<stop stop-color="#00F6D9"/>
<stop offset="1" stop-color="#00F6D9" stop-opacity="0"/>
</linearGradient>
<linearGradient id="paint41_linear_624_1457" x1="339.074" y1="182.31" x2="339.074" y2="423" gradientUnits="userSpaceOnUse">
<stop stop-color="#15A8E2"/>
<stop offset="1" stop-color="#2A58AD"/>
</linearGradient>
<linearGradient id="paint42_linear_624_1457" x1="339.074" y1="182.31" x2="339.074" y2="423" gradientUnits="userSpaceOnUse">
<stop stop-color="#00F6D9"/>
<stop offset="1" stop-opacity="0"/>
</linearGradient>
<linearGradient id="paint43_linear_624_1457" x1="188.932" y1="57.2269" x2="188.932" y2="423" gradientUnits="userSpaceOnUse">
<stop stop-color="#15A8E2"/>
<stop offset="1" stop-color="#2A58AD"/>
</linearGradient>
<linearGradient id="paint44_linear_624_1457" x1="188.932" y1="57.2269" x2="188.932" y2="423" gradientUnits="userSpaceOnUse">
<stop stop-color="#00F6D9"/>
<stop offset="1" stop-opacity="0"/>
</linearGradient>
<linearGradient id="paint45_linear_624_1457" x1="37.7957" y1="7.73437" x2="37.7957" y2="422.782" gradientUnits="userSpaceOnUse">
<stop stop-color="#15A8E2"/>
<stop offset="1" stop-color="#2A58AD"/>
</linearGradient>
<linearGradient id="paint46_linear_624_1457" x1="37.7957" y1="7.73437" x2="37.7957" y2="422.782" gradientUnits="userSpaceOnUse">
<stop stop-color="#00F6D9"/>
<stop offset="1" stop-color="#00F6D9" stop-opacity="0"/>
</linearGradient>
<linearGradient id="paint47_linear_624_1457" x1="264.003" y1="104.607" x2="264.003" y2="423" gradientUnits="userSpaceOnUse">
<stop stop-color="#15A8E2"/>
<stop offset="1" stop-color="#2A58AD"/>
</linearGradient>
<linearGradient id="paint48_linear_624_1457" x1="264.003" y1="104.607" x2="264.003" y2="423" gradientUnits="userSpaceOnUse">
<stop stop-color="#00F6D9"/>
<stop offset="1" stop-opacity="0"/>
</linearGradient>
<linearGradient id="paint49_linear_624_1457" x1="414.642" y1="242.956" x2="414.642" y2="423" gradientUnits="userSpaceOnUse">
<stop stop-color="#15A8E2"/>
<stop offset="1" stop-color="#2A58AD"/>
</linearGradient>
<linearGradient id="paint50_linear_624_1457" x1="414.642" y1="242.956" x2="414.642" y2="423" gradientUnits="userSpaceOnUse">
<stop stop-color="#00F6D9"/>
<stop offset="1" stop-color="#00F6D9" stop-opacity="0"/>
</linearGradient>
<linearGradient id="paint51_linear_624_1457" x1="487.724" y1="290.336" x2="487.724" y2="423" gradientUnits="userSpaceOnUse">
<stop stop-color="#15A8E2"/>
<stop offset="1" stop-color="#2A58AD"/>
</linearGradient>
<linearGradient id="paint52_linear_624_1457" x1="487.724" y1="290.336" x2="487.724" y2="423" gradientUnits="userSpaceOnUse">
<stop stop-color="#00F6D9"/>
<stop offset="1" stop-opacity="0"/>
</linearGradient>
<linearGradient id="paint53_linear_624_1457" x1="113.364" y1="203.157" x2="113.364" y2="423" gradientUnits="userSpaceOnUse">
<stop stop-color="#15A5E0"/>
<stop offset="1" stop-color="#295AAF"/>
</linearGradient>
<linearGradient id="paint54_linear_624_1457" x1="113.364" y1="203.157" x2="113.364" y2="423" gradientUnits="userSpaceOnUse">
<stop stop-color="#00F6D9"/>
<stop offset="1" stop-color="#00F6D9" stop-opacity="0"/>
</linearGradient>
</defs>
</svg>
