<svg width="188" height="47" viewBox="0 0 188 47" fill="none" xmlns="http://www.w3.org/2000/svg">
<g filter="url(#filter0_d_951_400)">
<path d="M115.993 5.27551H93.7266C93.1743 5.27551 92.7266 5.72323 92.7266 6.27551V12.2755C92.7266 12.8278 93.1743 13.2755 93.7266 13.2755H103.927L92.9955 24.9874C92.8227 25.1725 92.7266 25.4164 92.7266 25.6697V32.2755C92.7266 32.8278 93.1743 33.2755 93.7266 33.2755H115.993C116.546 33.2755 116.993 32.8278 116.993 32.2755V26.2755C116.993 25.7232 116.546 25.2755 115.993 25.2755H104.86L116.993 12.2755V6.27551C116.993 5.72323 116.546 5.27551 115.993 5.27551Z" fill="#00F6D9"/>
<path d="M87.0598 5.27551H61.9932C61.4409 5.27551 60.9932 5.72323 60.9932 6.27551V12.2755C60.9932 12.8278 61.4409 13.2755 61.9932 13.2755H69.3932V32.2755C69.3932 32.8278 69.8409 33.2755 70.3932 33.2755H78.6598C79.2121 33.2755 79.6598 32.8278 79.6598 32.2755V13.2755H87.0598C87.6121 13.2755 88.0598 12.8278 88.0598 12.2755V6.27551C88.0598 5.72323 87.6121 5.27551 87.0598 5.27551Z" fill="#00F6D9"/>
<path d="M8.25983 2.77551L13.3932 5.77551H54.9265C55.442 5.77551 55.8598 6.22323 55.8598 6.77551V11.7755C55.8598 12.3278 55.442 12.7755 54.9265 12.7755H39.9932V15.7755H50.2598C50.7753 15.7755 51.1932 16.2232 51.1932 16.7755V21.7755C51.1932 22.3278 50.7753 22.7755 50.2598 22.7755H39.9932V25.7755H54.9265C55.442 25.7755 55.8598 26.2232 55.8598 26.7755V31.7755C55.8598 32.3278 55.442 32.7755 54.9265 32.7755H13.3932L8.25983 36.7755M11.5265 9.27551C11.5265 9.8278 11.1086 10.2755 10.5932 10.2755C10.0777 10.2755 9.65983 9.8278 9.65983 9.27551C9.65983 8.72323 10.0777 8.27551 10.5932 8.27551C11.1086 8.27551 11.5265 8.72323 11.5265 9.27551ZM11.5265 9.27551H31.1265M18.0598 15.2755C18.0598 15.8278 17.642 16.2755 17.1265 16.2755C16.611 16.2755 16.1932 15.8278 16.1932 15.2755C16.1932 14.7232 16.611 14.2755 17.1265 14.2755C17.642 14.2755 18.0598 14.7232 18.0598 15.2755ZM18.0598 15.2755H31.1265M22.7265 18.2755C22.7265 18.8278 22.3086 19.2755 21.7932 19.2755C21.2777 19.2755 20.8598 18.8278 20.8598 18.2755C20.8598 17.7232 21.2777 17.2755 21.7932 17.2755C22.3086 17.2755 22.7265 17.7232 22.7265 18.2755ZM22.7265 18.2755H31.1265M14.3265 27.2755C14.3265 27.8278 13.9086 28.2755 13.3932 28.2755C12.8777 28.2755 12.4598 27.8278 12.4598 27.2755C12.4598 26.7232 12.8777 26.2755 13.3932 26.2755C13.9086 26.2755 14.3265 26.7232 14.3265 27.2755ZM14.3265 27.2755H31.1265M6.85983 22.2755C6.85983 22.8278 6.44196 23.2755 5.9265 23.2755C5.41103 23.2755 4.99316 22.8278 4.99316 22.2755C4.99316 21.7232 5.41103 21.2755 5.9265 21.2755C6.44196 21.2755 6.85983 21.7232 6.85983 22.2755ZM6.85983 22.2755H11.0598L14.3265 24.2755H31.1265M31.1265 12.2755H13.3932L8.25983 16.7755M31.1265 21.2755H16.1932L13.8598 19.7755M31.1265 30.2755H11.5265L9.19316 28.7755M7.79316 1.27551C7.2777 1.27551 6.85983 1.72323 6.85983 2.27551C6.85983 2.8278 7.2777 3.27551 7.79316 3.27551C8.30863 3.27551 8.7265 2.8278 8.7265 2.27551C8.7265 1.72323 8.30863 1.27551 7.79316 1.27551ZM8.7265 27.2755C8.21103 27.2755 7.79316 27.7232 7.79316 28.2755C7.79316 28.8278 8.21103 29.2755 8.7265 29.2755C9.24196 29.2755 9.65983 28.8278 9.65983 28.2755C9.65983 27.7232 9.24196 27.2755 8.7265 27.2755ZM13.3932 18.2755C12.8777 18.2755 12.4598 18.7232 12.4598 19.2755C12.4598 19.8278 12.8777 20.2755 13.3932 20.2755C13.9086 20.2755 14.3265 19.8278 14.3265 19.2755C14.3265 18.7232 13.9086 18.2755 13.3932 18.2755ZM7.79316 16.2755C7.2777 16.2755 6.85983 16.7232 6.85983 17.2755C6.85983 17.8278 7.2777 18.2755 7.79316 18.2755C8.30863 18.2755 8.7265 17.8278 8.7265 17.2755C8.7265 16.7232 8.30863 16.2755 7.79316 16.2755ZM7.79316 36.2755C7.2777 36.2755 6.85983 36.7232 6.85983 37.2755C6.85983 37.8278 7.2777 38.2755 7.79316 38.2755C8.30863 38.2755 8.7265 37.8278 8.7265 37.2755C8.7265 36.7232 8.30863 36.2755 7.79316 36.2755Z" stroke="#00F6D9"/>
</g>
<g filter="url(#filter1_d_951_400)">
<rect x="128.993" y="5.27551" width="55" height="30" rx="9" fill="url(#paint0_linear_951_400)"/>
<rect x="129.993" y="6.27551" width="53" height="28" rx="8" stroke="url(#paint1_linear_951_400)" stroke-width="2"/>
</g>
<g filter="url(#filter2_d_951_400)">
<path d="M141.224 17.2032L138.903 24.2755H137.034L140.204 15.7443H141.394L141.224 17.2032ZM143.151 24.2755L140.825 17.2032L140.638 15.7443H141.839L145.026 24.2755H143.151ZM143.046 21.0997V22.4767H138.54V21.0997H143.046ZM148.437 24.2755H146.579L146.591 22.9044H148.437C148.897 22.9044 149.286 22.8009 149.603 22.5939C149.919 22.3829 150.157 22.0763 150.317 21.674C150.481 21.2716 150.563 20.7853 150.563 20.215V19.799C150.563 19.3615 150.517 18.9767 150.423 18.6447C150.333 18.3126 150.198 18.0333 150.019 17.8068C149.839 17.5802 149.618 17.4103 149.356 17.297C149.095 17.1798 148.794 17.1212 148.454 17.1212H146.544V15.7443H148.454C149.024 15.7443 149.546 15.8419 150.019 16.0372C150.495 16.2286 150.907 16.504 151.255 16.8634C151.603 17.2228 151.87 17.6525 152.058 18.1525C152.249 18.6486 152.345 19.2013 152.345 19.8107V20.215C152.345 20.8204 152.249 21.3732 152.058 21.8732C151.87 22.3732 151.603 22.8029 151.255 23.1622C150.911 23.5177 150.499 23.7931 150.019 23.9884C149.542 24.1798 149.015 24.2755 148.437 24.2755ZM147.575 15.7443V24.2755H145.817V15.7443H147.575ZM154.425 15.7443H155.913L158.104 22.0079L160.296 15.7443H161.784L158.702 24.2755H157.507L154.425 15.7443ZM153.622 15.7443H155.104L155.374 21.8497V24.2755H153.622V15.7443ZM161.104 15.7443H162.593V24.2755H160.835V21.8497L161.104 15.7443ZM166.003 15.7443V24.2755H164.251V15.7443H166.003ZM174.593 15.7443V24.2755H172.835L169.407 18.5568V24.2755H167.649V15.7443H169.407L172.841 21.4689V15.7443H174.593Z" fill="#23225E"/>
</g>
<defs>
<filter id="filter0_d_951_400" x="0.493164" y="0.775513" width="120.5" height="46" filterUnits="userSpaceOnUse" color-interpolation-filters="sRGB">
<feFlood flood-opacity="0" result="BackgroundImageFix"/>
<feColorMatrix in="SourceAlpha" type="matrix" values="0 0 0 0 0 0 0 0 0 0 0 0 0 0 0 0 0 0 127 0" result="hardAlpha"/>
<feOffset dy="4"/>
<feGaussianBlur stdDeviation="2"/>
<feComposite in2="hardAlpha" operator="out"/>
<feColorMatrix type="matrix" values="0 0 0 0 0 0 0 0 0 0 0 0 0 0 0 0 0 0 0.25 0"/>
<feBlend mode="normal" in2="BackgroundImageFix" result="effect1_dropShadow_951_400"/>
<feBlend mode="normal" in="SourceGraphic" in2="effect1_dropShadow_951_400" result="shape"/>
</filter>
<filter id="filter1_d_951_400" x="124.993" y="5.27551" width="63" height="38" filterUnits="userSpaceOnUse" color-interpolation-filters="sRGB">
<feFlood flood-opacity="0" result="BackgroundImageFix"/>
<feColorMatrix in="SourceAlpha" type="matrix" values="0 0 0 0 0 0 0 0 0 0 0 0 0 0 0 0 0 0 127 0" result="hardAlpha"/>
<feOffset dy="4"/>
<feGaussianBlur stdDeviation="2"/>
<feComposite in2="hardAlpha" operator="out"/>
<feColorMatrix type="matrix" values="0 0 0 0 0 0 0 0 0 0 0 0 0 0 0 0 0 0 0.25 0"/>
<feBlend mode="normal" in2="BackgroundImageFix" result="effect1_dropShadow_951_400"/>
<feBlend mode="normal" in="SourceGraphic" in2="effect1_dropShadow_951_400" result="shape"/>
</filter>
<filter id="filter2_d_951_400" x="133.034" y="15.7443" width="45.5586" height="16.5312" filterUnits="userSpaceOnUse" color-interpolation-filters="sRGB">
<feFlood flood-opacity="0" result="BackgroundImageFix"/>
<feColorMatrix in="SourceAlpha" type="matrix" values="0 0 0 0 0 0 0 0 0 0 0 0 0 0 0 0 0 0 127 0" result="hardAlpha"/>
<feOffset dy="4"/>
<feGaussianBlur stdDeviation="2"/>
<feComposite in2="hardAlpha" operator="out"/>
<feColorMatrix type="matrix" values="0 0 0 0 0 0 0 0 0 0 0 0 0 0 0 0 0 0 0.25 0"/>
<feBlend mode="normal" in2="BackgroundImageFix" result="effect1_dropShadow_951_400"/>
<feBlend mode="normal" in="SourceGraphic" in2="effect1_dropShadow_951_400" result="shape"/>
</filter>
<linearGradient id="paint0_linear_951_400" x1="156.809" y1="35.2755" x2="156.809" y2="1.81397" gradientUnits="userSpaceOnUse">
<stop stop-color="#00F6D9"/>
<stop offset="1" stop-color="#3D75A0"/>
</linearGradient>
<linearGradient id="paint1_linear_951_400" x1="156.493" y1="5.27551" x2="156.493" y2="35.2755" gradientUnits="userSpaceOnUse">
<stop stop-color="#00F6D9"/>
<stop offset="1" stop-color="#00F6D9" stop-opacity="0"/>
</linearGradient>
</defs>
</svg>
