<svg width="121" height="47" viewBox="0 0 121 47" fill="none" xmlns="http://www.w3.org/2000/svg">
<g id="logo" filter="url(#filter0_d_2205_12)">
<path id="z" d="M115.993 5.27551H93.7268C93.1745 5.27551 92.7268 5.72323 92.7268 6.27551V12.2755C92.7268 12.8278 93.1745 13.2755 93.7268 13.2755H103.927L92.9958 24.9874C92.8229 25.1725 92.7268 25.4164 92.7268 25.6697V32.2755C92.7268 32.8278 93.1745 33.2755 93.7268 33.2755H115.993C116.546 33.2755 116.993 32.8278 116.993 32.2755V26.2755C116.993 25.7232 116.546 25.2755 115.993 25.2755H104.86L116.993 12.2755V6.27551C116.993 5.72323 116.546 5.27551 115.993 5.27551Z" fill="#00F6D9"/>
<path id="t" d="M87.0601 5.27551H61.9934C61.4411 5.27551 60.9934 5.72323 60.9934 6.27551V12.2755C60.9934 12.8278 61.4411 13.2755 61.9934 13.2755H69.3934V32.2755C69.3934 32.8278 69.8411 33.2755 70.3934 33.2755H78.6601C79.2124 33.2755 79.6601 32.8278 79.6601 32.2755V13.2755H87.0601C87.6124 13.2755 88.0601 12.8278 88.0601 12.2755V6.27551C88.0601 5.72323 87.6124 5.27551 87.0601 5.27551Z" fill="#00F6D9"/>
<path id="e" d="M8.26008 2.77551L13.3934 5.77551H54.9267C55.4422 5.77551 55.8601 6.22323 55.8601 6.77551V11.7755C55.8601 12.3278 55.4422 12.7755 54.9267 12.7755H39.9934V15.7755H50.2601C50.7755 15.7755 51.1934 16.2232 51.1934 16.7755V21.7755C51.1934 22.3278 50.7755 22.7755 50.2601 22.7755H39.9934V25.7755H54.9267C55.4422 25.7755 55.8601 26.2232 55.8601 26.7755V31.7755C55.8601 32.3278 55.4422 32.7755 54.9267 32.7755H13.3934L8.26008 36.7755M11.5267 9.27551C11.5267 9.8278 11.1089 10.2755 10.5934 10.2755C10.0779 10.2755 9.66008 9.8278 9.66008 9.27551C9.66008 8.72323 10.0779 8.27551 10.5934 8.27551C11.1089 8.27551 11.5267 8.72323 11.5267 9.27551ZM11.5267 9.27551H31.1267M18.0601 15.2755C18.0601 15.8278 17.6422 16.2755 17.1267 16.2755C16.6113 16.2755 16.1934 15.8278 16.1934 15.2755C16.1934 14.7232 16.6113 14.2755 17.1267 14.2755C17.6422 14.2755 18.0601 14.7232 18.0601 15.2755ZM18.0601 15.2755H31.1267M22.7267 18.2755C22.7267 18.8278 22.3089 19.2755 21.7934 19.2755C21.2779 19.2755 20.8601 18.8278 20.8601 18.2755C20.8601 17.7232 21.2779 17.2755 21.7934 17.2755C22.3089 17.2755 22.7267 17.7232 22.7267 18.2755ZM22.7267 18.2755H31.1267M14.3267 27.2755C14.3267 27.8278 13.9089 28.2755 13.3934 28.2755C12.8779 28.2755 12.4601 27.8278 12.4601 27.2755C12.4601 26.7232 12.8779 26.2755 13.3934 26.2755C13.9089 26.2755 14.3267 26.7232 14.3267 27.2755ZM14.3267 27.2755H31.1267M6.86008 22.2755C6.86008 22.8278 6.44221 23.2755 5.92674 23.2755C5.41128 23.2755 4.99341 22.8278 4.99341 22.2755C4.99341 21.7232 5.41128 21.2755 5.92674 21.2755C6.44221 21.2755 6.86008 21.7232 6.86008 22.2755ZM6.86008 22.2755H11.0601L14.3267 24.2755H31.1267M31.1267 12.2755H13.3934L8.26008 16.7755M31.1267 21.2755H16.1934L13.8601 19.7755M31.1267 30.2755H11.5267L9.19341 28.7755M7.79341 1.27551C7.27794 1.27551 6.86008 1.72323 6.86008 2.27551C6.86008 2.8278 7.27794 3.27551 7.79341 3.27551C8.30887 3.27551 8.72674 2.8278 8.72674 2.27551C8.72674 1.72323 8.30887 1.27551 7.79341 1.27551ZM8.72674 27.2755C8.21128 27.2755 7.79341 27.7232 7.79341 28.2755C7.79341 28.8278 8.21128 29.2755 8.72674 29.2755C9.24221 29.2755 9.66008 28.8278 9.66008 28.2755C9.66008 27.7232 9.24221 27.2755 8.72674 27.2755ZM13.3934 18.2755C12.8779 18.2755 12.4601 18.7232 12.4601 19.2755C12.4601 19.8278 12.8779 20.2755 13.3934 20.2755C13.9089 20.2755 14.3267 19.8278 14.3267 19.2755C14.3267 18.7232 13.9089 18.2755 13.3934 18.2755ZM7.79341 16.2755C7.27794 16.2755 6.86008 16.7232 6.86008 17.2755C6.86008 17.8278 7.27794 18.2755 7.79341 18.2755C8.30887 18.2755 8.72674 17.8278 8.72674 17.2755C8.72674 16.7232 8.30887 16.2755 7.79341 16.2755ZM7.79341 36.2755C7.27794 36.2755 6.86008 36.7232 6.86008 37.2755C6.86008 37.8278 7.27794 38.2755 7.79341 38.2755C8.30887 38.2755 8.72674 37.8278 8.72674 37.2755C8.72674 36.7232 8.30887 36.2755 7.79341 36.2755Z" stroke="#00F6D9"/>
</g>
<defs>
<filter id="filter0_d_2205_12" x="0.493408" y="0.775513" width="120.5" height="46" filterUnits="userSpaceOnUse" color-interpolation-filters="sRGB">
<feFlood flood-opacity="0" result="BackgroundImageFix"/>
<feColorMatrix in="SourceAlpha" type="matrix" values="0 0 0 0 0 0 0 0 0 0 0 0 0 0 0 0 0 0 127 0" result="hardAlpha"/>
<feOffset dy="4"/>
<feGaussianBlur stdDeviation="2"/>
<feComposite in2="hardAlpha" operator="out"/>
<feColorMatrix type="matrix" values="0 0 0 0 0 0 0 0 0 0 0 0 0 0 0 0 0 0 0.25 0"/>
<feBlend mode="normal" in2="BackgroundImageFix" result="effect1_dropShadow_2205_12"/>
<feBlend mode="normal" in="SourceGraphic" in2="effect1_dropShadow_2205_12" result="shape"/>
</filter>
</defs>
</svg>
