<svg width="71" height="81" viewBox="0 0 71 81" fill="none" xmlns="http://www.w3.org/2000/svg">
<path id="Vector" fill-rule="evenodd" clip-rule="evenodd" d="M21.382 25.3372L23.2163 27.1925C25.662 29.6662 25.662 33.677 23.2163 36.1507C20.7705 38.624 16.8053 38.624 14.3596 36.1507L1.8343 23.4819C-0.611432 21.0082 -0.611432 16.9976 1.8343 14.5239L14.3596 1.85529C16.8053 -0.618428 20.7705 -0.618428 23.2163 1.85529C25.662 4.329 25.662 8.33962 23.2163 10.8133L21.382 12.6686H64.7139C68.1726 12.6686 70.9766 15.5046 70.9766 19.0029V31.6715C70.9766 35.1697 68.1726 38.0058 64.7139 38.0058C61.2553 38.0058 58.4513 35.1697 58.4513 31.6715V25.3372H21.382ZM49.5947 54.8973L47.7601 53.0422C45.3148 50.5684 45.3148 46.5575 47.7601 44.0838C50.2059 41.6105 54.1714 41.6105 56.6172 44.0838L69.1424 56.7524C71.5878 59.2261 71.5878 63.237 69.1424 65.7108L56.6172 78.3794C54.1714 80.8527 50.2059 80.8527 47.7601 78.3794C45.3148 75.9056 45.3148 71.8947 47.7601 69.421L49.5947 67.5659H6.26265C2.80388 67.5659 1.03275e-05 64.7298 1.03275e-05 61.2316V48.563C1.03275e-05 45.0648 2.80388 42.2287 6.26265 42.2287C9.72142 42.2287 12.5253 45.0648 12.5253 48.563V54.8973H49.5947Z" fill="#00F6D9"/>
</svg>
